<?xml version="1.0" ?><!DOCTYPE svg  PUBLIC '-//W3C//DTD SVG 1.1//EN'  'http://www.w3.org/Graphics/SVG/1.1/DTD/svg11.dtd'><svg enable-background="new 0 0 24 24" height="24px" id="Layer_1" version="1.1" viewBox="0 0 24 24" width="24px" xml:space="preserve" xmlns="http://www.w3.org/2000/svg" xmlns:xlink="http://www.w3.org/1999/xlink"><g id="icon"><path d="M12.0556,22.9412c6.0758,0,11.0008,-4.9032,11.0008,-10.9511c0,-6.0476,-4.925,-10.9505,-11.0008,-10.9505c-6.0764,0,-11.0008,4.9029,-11.0008,10.9505C1.0549,18.038,5.9792,22.9412,12.0556,22.9412" fill="#D33B37"/><path d="M11.1483,15.3399l-0.5005,-1.3606c0,0,-0.8133,0.9071,-2.033,0.9071c-1.0792,0,-1.8455,-0.9383,-1.8455,-2.4398c0,-1.9236,0.9695,-2.6118,1.9236,-2.6118c1.3762,0,1.814,0.8915,2.1895,2.0332l0.5004,1.5639c0.5003,1.5169,1.4387,2.7367,4.1441,2.7367c1.9395,0,3.2531,-0.5942,3.2531,-2.1579c0,-1.2669,-0.7196,-1.9238,-2.0644,-2.2366l-1.0009,-0.2189c-0.688,-0.1563,-0.8913,-0.4379,-0.8913,-0.9071c0,-0.5317,0.4221,-0.8444,1.1103,-0.8444c0.7507,0,1.1573,0.2815,1.2198,0.9539l1.5639,-0.1877c-0.1251,-1.4075,-1.0947,-1.9862,-2.6899,-1.9862c-1.4074,0,-2.7838,0.5318,-2.7838,2.2364c0,1.0635,0.516,1.736,1.814,2.0488l1.0636,0.2502c0.7976,0.1877,1.0633,0.516,1.0633,0.9696c0,0.5785,-0.5629,0.8131,-1.6264,0.8131c-1.5797,0,-2.2363,-0.8288,-2.6118,-1.9704l-0.516,-1.5638c-0.6568,-2.033,-1.7046,-2.7838,-3.7848,-2.7838c-2.2988,0,-3.5187,1.4544,-3.5187,3.9253c0,2.3773,1.2199,3.6595,3.4094,3.6595C10.3036,16.1688,11.1482,15.3399,11.1483,15.3399" fill="#FFFFFF"/><path d="M4.2218,19.7782C6.2124,21.7688,8.9624,23,12,23c6.0751,0,11,-4.9249,11,-11c0,-3.0376,-1.2312,-5.7876,-3.2218,-7.7782L4.2218,19.7782z" fill="#231F20" opacity="0.1"/></g></svg>